# xmcd CD database file
#
# Track frame offsets:
#	150
#	13793
#	29271
#	51201
#	65451
#	82744
#	96262
#	108997
#	122672
#	136830
#	153549
#	166806
#	181865
#	197082
#
# Disc length: 2777 seconds
#
# Revision: 1
# Processed by: cddbd v1.5.2PL0 Copyright (c) Steve Scherf et al.
# Submitted via: CDex 1.70beta2
#
DISCID=ad0ad70e
DTITLE=J Parson - Cowboy Tradition
DYEAR=2006
DGENRE=Country
TTITLE0=The Cowboy In The Continental Suit
TTITLE1=Cool Water
TTITLE2=Little Joe The Wrangler
TTITLE3=The Strawberry Roan
TTITLE4=The Blizzard
TTITLE5=Ghost Riders In The Sky
TTITLE6=Old Paint
TTITLE7=Red River Valler
TTITLE8=Old Red
TTITLE9=South Of The Border
TTITLE10=Git Along Little Dogies
TTITLE11=Streets Of Laredo
TTITLE12=The Great Speckled Bird
TTITLE13=I'll Fly Away
EXTD=YEAR: 2006
EXTT0=
EXTT1=
EXTT2=
EXTT3=
EXTT4=
EXTT5=
EXTT6=
EXTT7=
EXTT8=
EXTT9=
EXTT10=
EXTT11=
EXTT12=
EXTT13=
PLAYORDER=
